# xmcd
#
# Track frame offsets:
#	150
#	21339
#	38886
#	63738
#	81892
#	95111
#	126280
#	139156
#	175084
#	188218
#	219741
#	237787
#	267547
#	281199
#	304856
#
# Disc length: 4345 seconds
#
# Revision: 6
# Processed by: cddbd v1.5.2PL0 Copyright (c) Steve Scherf et al.
# Submitted via: EasyCDDAExtractor 10.2.0.1
#
DISCID=eb10f70f
DTITLE=Eric Clapton - Blues [Disc 1]
DYEAR=1999
DGENRE=Blues
TTITLE0=Before You Accuse Me (Take A Look At Yourself) Version 1
TTITLE1=Mean Old World
TTITLE2=Ain T That Loving You
TTITLE3=The Sky Is Crying
TTITLE4=Cryin
TTITLE5=Have You Ever Loved A Woman
TTITLE6=Alberta
TTITLE7=Early In The Morning
TTITLE8=Give Me Strength
TTITLE9=Meet Me (Down At The Bottom)
TTITLE10=County Jail Blues
TTITLE11=Floating Bridge
TTITLE12=Blow Wind Blow
TTITLE13=To Make Somebody Happy
TTITLE14=Before You Accuse Me (Take A Look At Yourself) Version 2
EXTD=
EXTT0=
EXTT1=
EXTT2=
EXTT3=
EXTT4=
EXTT5=
EXTT6=
EXTT7=
EXTT8=
EXTT9=
EXTT10=
EXTT11=
EXTT12=
EXTT13=
EXTT14=
PLAYORDER=
